<?xml version="1.0" encoding="utf-8"?>
<!-- Generator: Adobe Illustrator 16.0.0, SVG Export Plug-In . SVG Version: 6.00 Build 0)  -->
<!DOCTYPE svg PUBLIC "-//W3C//DTD SVG 1.1//EN" "http://www.w3.org/Graphics/SVG/1.1/DTD/svg11.dtd">
<svg version="1.1" id="Lager_1" xmlns="http://www.w3.org/2000/svg" xmlns:xlink="http://www.w3.org/1999/xlink" x="0px" y="0px"
	 width="16px" height="16px" viewBox="0 0 16 16" enable-background="new 0 0 16 16" xml:space="preserve">
<path fill="#FFFFFF" d="M10,12.5c0,0.276-0.224,0.5-0.5,0.5h-8C1.224,13,1,12.776,1,12.5v-9C1,3.224,1.224,3,1.5,3h8
	C9.776,3,10,3.224,10,3.5v2C10,5.776,10.224,6,10.5,6S11,5.776,11,5.5v-2C11,2.671,10.328,2,9.5,2h-8C0.671,2,0,2.671,0,3.5v9
	C0,13.328,0.671,14,1.5,14h8c0.828,0,1.5-0.672,1.5-1.5v-2c0-0.276-0.224-0.5-0.5-0.5S10,10.224,10,10.5V12.5z"/>
<path fill="#FFFFFF" d="M15.854,8.354c0.195-0.195,0.196-0.512,0.002-0.707c-0.001,0-0.001,0-0.002-0.001l-3-3
	c-0.195-0.195-0.512-0.195-0.707,0s-0.195,0.513,0,0.708L14.293,7.5H5.5C5.224,7.5,5,7.724,5,8s0.224,0.5,0.5,0.5h8.793
	l-2.146,2.146c-0.195,0.195-0.195,0.512,0,0.707s0.512,0.195,0.707,0L15.854,8.354z"/>
</svg>
