<?xml version="1.0" encoding="utf-8"?>
<!-- Generator: Adobe Illustrator 16.0.0, SVG Export Plug-In . SVG Version: 6.00 Build 0)  -->
<!DOCTYPE svg PUBLIC "-//W3C//DTD SVG 1.1//EN" "http://www.w3.org/Graphics/SVG/1.1/DTD/svg11.dtd">
<svg version="1.1" id="Lager_1" xmlns="http://www.w3.org/2000/svg" xmlns:xlink="http://www.w3.org/1999/xlink" x="0px" y="0px"
	 width="278.986px" height="199.49px" viewBox="0 0 278.986 199.49" enable-background="new 0 0 278.986 199.49"
	 xml:space="preserve">
<g>
	<path fill="#00B1FF" stroke="#FFFFFF" stroke-width="2" stroke-miterlimit="10" d="M260.273,7.663H127.451
		c-6.236,0-11.339,5.103-11.339,11.338v68.323c0,6.236,5.103,11.338,11.339,11.338h90.661l28.991,28.993
		c2.205,2.205,4.009,1.457,4.009-1.662V98.833c0-0.057-0.007-0.113-0.009-0.17h9.17c6.236,0,11.339-5.102,11.339-11.338V19.001
		C271.612,12.766,266.51,7.663,260.273,7.663z"/>
	<g>
		<circle fill="#FFFFFF" cx="164.696" cy="51.959" r="11.667"/>
		<circle fill="#FFFFFF" cx="193.863" cy="51.959" r="11.667"/>
		<circle fill="#FFFFFF" cx="223.03" cy="51.959" r="11.667"/>
	</g>
</g>
<g>
	<path fill="#00CFFF" stroke="#FFFFFF" stroke-width="2" stroke-miterlimit="10" d="M18.784,72.663h132.822
		c6.236,0,11.34,5.103,11.34,11.338v68.324c0,6.236-5.104,11.338-11.34,11.338H60.945l-28.991,28.992
		c-2.205,2.205-4.009,1.457-4.009-1.662v-27.16c0-0.057,0.007-0.113,0.009-0.17h-9.17c-6.236,0-11.339-5.102-11.339-11.338V84.001
		C7.445,77.766,12.547,72.663,18.784,72.663z"/>
	<g>
		<circle fill="#FFFFFF" cx="114.361" cy="116.959" r="11.667"/>
		<circle fill="#FFFFFF" cx="85.194" cy="116.959" r="11.666"/>
		<circle fill="#FFFFFF" cx="56.027" cy="116.959" r="11.667"/>
	</g>
</g>
</svg>
