<?xml version="1.0" encoding="utf-8"?>
<!-- Generator: Adobe Illustrator 16.0.0, SVG Export Plug-In . SVG Version: 6.00 Build 0)  -->
<!DOCTYPE svg PUBLIC "-//W3C//DTD SVG 1.1//EN" "http://www.w3.org/Graphics/SVG/1.1/DTD/svg11.dtd">
<svg version="1.1" id="Lager_1" xmlns="http://www.w3.org/2000/svg" xmlns:xlink="http://www.w3.org/1999/xlink" x="0px" y="0px"
	 width="16px" height="16px" viewBox="0 0 16 16" enable-background="new 0 0 16 16" xml:space="preserve">
<path fill="#FFFFFF" d="M14,1c0.553,0,1,0.448,1,1v8c0,0.553-0.447,1-1,1h-2.5c-0.629,0-1.223,0.297-1.6,0.8L8,14.333L6.1,11.8
	C5.722,11.297,5.129,11,4.5,11H2c-0.552,0-1-0.447-1-1V2c0-0.552,0.448-1,1-1H14z M2,0C0.896,0,0,0.896,0,2v8c0,1.104,0.896,2,2,2
	h2.5c0.315,0,0.611,0.148,0.8,0.4l1.9,2.533c0.331,0.441,0.958,0.531,1.399,0.199c0.076-0.057,0.144-0.124,0.2-0.199l1.9-2.533
	c0.188-0.252,0.485-0.4,0.8-0.4H14c1.104,0,2-0.896,2-2V2c0-1.104-0.896-2-2-2H2z"/>
<path fill="#FFFFFF" d="M3,3.5C3,3.224,3.224,3,3.5,3h9C12.776,3,13,3.224,13,3.5S12.776,4,12.5,4h-9C3.224,4,3,3.776,3,3.5z M3,6
	c0-0.276,0.224-0.5,0.5-0.5h9C12.776,5.5,13,5.724,13,6s-0.224,0.5-0.5,0.5h-9C3.224,6.5,3,6.276,3,6z M3,8.5C3,8.224,3.224,8,3.5,8
	h5C8.776,8,9,8.224,9,8.5S8.776,9,8.5,9h-5C3.224,9,3,8.776,3,8.5z"/>
</svg>
