<?xml version="1.0" encoding="utf-8"?>
<!-- Generator: Adobe Illustrator 16.0.0, SVG Export Plug-In . SVG Version: 6.00 Build 0)  -->
<!DOCTYPE svg PUBLIC "-//W3C//DTD SVG 1.1//EN" "http://www.w3.org/Graphics/SVG/1.1/DTD/svg11.dtd">
<svg version="1.1" id="Lager_1" xmlns="http://www.w3.org/2000/svg" xmlns:xlink="http://www.w3.org/1999/xlink" x="0px" y="0px"
	 width="16px" height="16px" viewBox="0 0 16 16" enable-background="new 0 0 16 16" xml:space="preserve">
<path fill="#FFFFFF" d="M15.354,8.146L13,5.792V2.5C13,2.224,12.776,2,12.5,2h-1C11.224,2,11,2.224,11,2.5v1.293L8.707,1.5
	c-0.391-0.391-1.023-0.391-1.414,0L0.646,8.146c-0.195,0.195-0.195,0.512,0,0.708s0.513,0.195,0.708,0L2,8.208V13.5
	C2,14.328,2.671,15,3.5,15h9c0.828,0,1.5-0.672,1.5-1.5V8.207l0.646,0.646c0.195,0.195,0.512,0.195,0.707,0
	S15.549,8.341,15.354,8.146z M13,13.5c0,0.276-0.224,0.5-0.5,0.5h-9C3.224,14,3,13.776,3,13.5V7.208l5-5l5,5V13.5z"/>
</svg>
