<?xml version="1.0" encoding="utf-8"?>
<!-- Generator: Adobe Illustrator 16.0.0, SVG Export Plug-In . SVG Version: 6.00 Build 0)  -->
<!DOCTYPE svg PUBLIC "-//W3C//DTD SVG 1.1//EN" "http://www.w3.org/Graphics/SVG/1.1/DTD/svg11.dtd">
<svg version="1.1" id="Lager_1" xmlns="http://www.w3.org/2000/svg" xmlns:xlink="http://www.w3.org/1999/xlink" x="0px" y="0px"
	 width="16px" height="16px" viewBox="0 0 16 16" enable-background="new 0 0 16 16" xml:space="preserve">
<path fill="#FFFFFF" d="M8,15c-3.866,0-7-3.134-7-7s3.134-7,7-7s7,3.134,7,7S11.866,15,8,15z M8,16c4.418,0,8-3.582,8-8
	c0-4.418-3.582-8-8-8C3.582,0,0,3.582,0,8C0,12.418,3.582,16,8,16z"/>
<path fill="#FFFFFF" d="M8,4c0.276,0,0.5,0.224,0.5,0.5v3h3C11.776,7.5,12,7.724,12,8s-0.224,0.5-0.5,0.5h-3v3
	C8.5,11.776,8.276,12,8,12s-0.5-0.224-0.5-0.5v-3h-3C4.224,8.5,4,8.276,4,8s0.224-0.5,0.5-0.5h3v-3C7.5,4.224,7.724,4,8,4z"/>
</svg>
