<?xml version="1.0" encoding="utf-8"?>
<!-- Generator: Adobe Illustrator 16.0.0, SVG Export Plug-In . SVG Version: 6.00 Build 0)  -->
<!DOCTYPE svg PUBLIC "-//W3C//DTD SVG 1.1//EN" "http://www.w3.org/Graphics/SVG/1.1/DTD/svg11.dtd">
<svg version="1.1" id="Lager_1" xmlns="http://www.w3.org/2000/svg" xmlns:xlink="http://www.w3.org/1999/xlink" x="0px" y="0px"
	 width="16px" height="16px" viewBox="0 0 16 16" enable-background="new 0 0 16 16" xml:space="preserve">
<path fill="#FFFFFF" d="M3.5,3.5C3.5,3.224,3.276,3,3,3S2.5,3.224,2.5,3.5v8.793l-1.146-1.146c-0.195-0.195-0.513-0.195-0.708,0
	s-0.195,0.512,0,0.707l0,0l2,2l0.007,0.006c0.196,0.191,0.508,0.188,0.7-0.006l2-2c0.195-0.195,0.196-0.512,0-0.707
	s-0.512-0.195-0.708,0L3.5,12.293V3.5z M7.5,4C7.224,4,7,3.776,7,3.5S7.224,3,7.5,3h1C8.776,3,9,3.224,9,3.5S8.776,4,8.5,4H7.5z
	 M7.5,7C7.224,7,7,6.776,7,6.5S7.224,6,7.5,6h3C10.776,6,11,6.224,11,6.5S10.776,7,10.5,7H7.5z M7.5,10C7.224,10,7,9.776,7,9.5
	S7.224,9,7.5,9h5C12.776,9,13,9.224,13,9.5S12.776,10,12.5,10H7.5z M7,12.5C7,12.776,7.224,13,7.5,13h7c0.276,0,0.5-0.224,0.5-0.5
	S14.776,12,14.5,12h-7C7.224,12,7,12.224,7,12.5z"/>
</svg>
